<?xml version="1.0" encoding="UTF-8"?>
<svg id="Ebene_1" data-name="Ebene 1" xmlns="http://www.w3.org/2000/svg" viewBox="0 0 50 50">
  <defs>
    <style>
      .cls-1 {
        fill: #28a745;
      }
    </style>
  </defs>
  <path class="cls-1" d="M41.35,8.65c-4.37-4.37-10.18-6.77-16.35-6.77s-11.98,2.41-16.35,6.77C4.28,13.02,1.87,18.82,1.87,25s2.41,11.98,6.77,16.35c4.37,4.37,10.18,6.77,16.35,6.77s11.98-2.41,16.35-6.77c4.37-4.37,6.77-10.18,6.77-16.35s-2.41-11.98-6.77-16.35ZM37.71,19.39l-14.84,14.84c-1.13,1.13-2.96,1.13-4.1,0l-1.65-1.65-4.84-4.84c-1.02-1.02-1.02-2.67,0-3.69h0c1.02-1.02,2.67-1.02,3.69,0l4.84,4.84,13.19-13.19c1.02-1.02,2.67-1.02,3.69,0h0c1.02,1.02,1.02,2.67,0,3.7Z"/>
</svg>